HIERARCHY
ROOT hip
{
  OFFSET 0 0 0
  CHANNELS 6 Xposition Yposition Zposition Zrotation Yrotation Xrotation
  JOINT abdomen
  {
    OFFSET 0 20.6881 -0.73152
    CHANNELS 3 Zrotation Xrotation Yrotation
    JOINT chest
    {
      OFFSET 0 11.7043 -0.48768
      CHANNELS 3 Zrotation Xrotation Yrotation
      JOINT neck
      {
        OFFSET 0 22.1894 -2.19456
        CHANNELS 3 Zrotation Xrotation Yrotation
        JOINT head
        {
          OFFSET -0.24384 7.07133 1.2192
          CHANNELS 3 Zrotation Xrotation Yrotation
          JOINT leftEye
          {
            OFFSET 4.14528 8.04674 8.04672
            CHANNELS 3 Zrotation Xrotation Yrotation
            End Site
            {
              OFFSET 1 0 0
            }
          }
          JOINT rightEye
          {
            OFFSET -3.6576 8.04674 8.04672
            CHANNELS 3 Zrotation Xrotation Yrotation
            End Site
            {
              OFFSET 1 0 0
            }
          }
        }
      }
      JOINT rCollar
      {
        OFFSET -2.68224 19.2634 -4.8768
        CHANNELS 3 Zrotation Xrotation Yrotation
        JOINT rShldr
        {
          OFFSET -8.77824 -1.95073 1.46304
          CHANNELS 3 Zrotation Xrotation Yrotation
          JOINT rForeArm
          {
            OFFSET -28.1742 -1.7115 0.48768
            CHANNELS 3 Zrotation Xrotation Yrotation
            JOINT rHand
            {
              OFFSET -22.5879 0.773209 7.07136
              CHANNELS 3 Zrotation Xrotation Yrotation
              JOINT rThumb1
              {
                OFFSET -1.2192 -0.487915 3.41376
                CHANNELS 3 Zrotation Xrotation Yrotation
                JOINT rThumb2
                {
                  OFFSET -3.37035 -0.52449 3.41376
                  CHANNELS 3 Zrotation Xrotation Yrotation
                  End Site
                  {
                    OFFSET -1.78271 -1.18214 1.43049
                  }
                }
              }
              JOINT rIndex1
              {
                OFFSET -7.75947 0.938293 5.60832
                CHANNELS 3 Zrotation Xrotation Yrotation
                JOINT rIndex2
                {
                  OFFSET -2.54057 -0.884171 1.56538
                  CHANNELS 3 Zrotation Xrotation Yrotation
                  End Site
                  {
                    OFFSET -1.62519 -0.234802 1.16502
                  }
                }
              }
              JOINT rMid1
              {
                OFFSET -8.24714 1.18213 3.41376
                CHANNELS 3 Zrotation Xrotation Yrotation
                JOINT rMid2
                {
                  OFFSET -3.10165 -0.590103 1.0647
                  CHANNELS 3 Zrotation Xrotation Yrotation
                  End Site
                  {
                    OFFSET -2.48547 -0.328903 0.83742
                  }
                }
              }
              JOINT rRing1
              {
                OFFSET -8.82822 0.546677 1.51678
                CHANNELS 3 Zrotation Xrotation Yrotation
                JOINT rRing2
                {
                  OFFSET -2.60934 -0.819778 -0.0198488
                  CHANNELS 3 Zrotation Xrotation Yrotation
                  End Site
                  {
                    OFFSET -2.33842 -0.294052 0.168128
                  }
                }
              }
              JOINT rPinky1
              {
                OFFSET -8.27202 -0.0477905 -0.4584
                CHANNELS 3 Zrotation Xrotation Yrotation
                JOINT rPinky2
                {
                  OFFSET -1.82734 -0.647385 -0.700984
                  CHANNELS 3 Zrotation Xrotation Yrotation
                  End Site
                  {
                    OFFSET -1.69225 -0.51767 -0.607171
                  }
                }
              }
            }
          }
        }
      }
      JOINT lCollar
      {
        OFFSET 2.68224 19.2634 -4.8768
        CHANNELS 3 Zrotation Xrotation Yrotation
        JOINT lShldr
        {
          OFFSET 8.77824 -1.95073 1.46304
          CHANNELS 3 Zrotation Xrotation Yrotation
          JOINT lForeArm
          {
            OFFSET 28.1742 -1.7115 0.48768
            CHANNELS 3 Zrotation Xrotation Yrotation
            JOINT lHand
            {
              OFFSET 22.5879 0.773209 7.07136
              CHANNELS 3 Zrotation Xrotation Yrotation
              JOINT lThumb1
              {
                OFFSET 1.2192 -0.487915 3.41376
                CHANNELS 3 Zrotation Xrotation Yrotation
                JOINT lThumb2
                {
                  OFFSET 3.37035 -0.52449 3.41376
                  CHANNELS 3 Zrotation Xrotation Yrotation
                  End Site
                  {
                    OFFSET 1.78271 -1.18214 1.43049
                  }
                }
              }
              JOINT lIndex1
              {
                OFFSET 7.75947 0.938293 5.60832
                CHANNELS 3 Zrotation Xrotation Yrotation
                JOINT lIndex2
                {
                  OFFSET 2.54057 -0.884171 1.56538
                  CHANNELS 3 Zrotation Xrotation Yrotation
                  End Site
                  {
                    OFFSET 1.62519 -0.234802 1.16502
                  }
                }
              }
              JOINT lMid1
              {
                OFFSET 8.24714 1.18213 3.41376
                CHANNELS 3 Zrotation Xrotation Yrotation
                JOINT lMid2
                {
                  OFFSET 3.10165 -0.590103 1.0647
                  CHANNELS 3 Zrotation Xrotation Yrotation
                  End Site
                  {
                    OFFSET 2.48547 -0.328903 0.83742
                  }
                }
              }
              JOINT lRing1
              {
                OFFSET 8.82822 0.546677 1.51678
                CHANNELS 3 Zrotation Xrotation Yrotation
                JOINT lRing2
                {
                  OFFSET 2.60934 -0.819778 -0.0198488
                  CHANNELS 3 Zrotation Xrotation Yrotation
                  End Site
                  {
                    OFFSET 2.33842 -0.294052 0.168128
                  }
                }
              }
              JOINT lPinky1
              {
                OFFSET 8.27202 -0.0477905 -0.4584
                CHANNELS 3 Zrotation Xrotation Yrotation
                JOINT lPinky2
                {
                  OFFSET 1.82734 -0.647385 -0.700984
                  CHANNELS 3 Zrotation Xrotation Yrotation
                  End Site
                  {
                    OFFSET 1.69225 -0.51767 -0.607171
                  }
                }
              }
            }
          }
        }
      }
    }
  }
  JOINT rButtock
  {
    OFFSET -8.77824 4.35084 1.2192
    CHANNELS 3 Zrotation Xrotation Yrotation
    JOINT rThigh
    {
      OFFSET 0 -1.70687 -2.19456
      CHANNELS 3 Zrotation Xrotation Yrotation
      JOINT rShin
      {
        OFFSET 0 -36.8199 0.73152
        CHANNELS 3 Zrotation Xrotation Yrotation
        JOINT rFoot
        {
          OFFSET 0.73152 -45.1104 -5.12064
          CHANNELS 3 Zrotation Xrotation Yrotation
          End Site
          {
            OFFSET -1.1221 -3.69964 12.103
          }
        }
      }
    }
  }
  JOINT lButtock
  {
    OFFSET 8.77824 4.35084 1.2192
    CHANNELS 3 Zrotation Xrotation Yrotation
    JOINT lThigh
    {
      OFFSET 0 -1.70687 -2.19456
      CHANNELS 3 Zrotation Xrotation Yrotation
      JOINT lShin
      {
        OFFSET 0 -36.8199 0.73152
        CHANNELS 3 Zrotation Xrotation Yrotation
        JOINT lFoot
        {
          OFFSET -0.73152 -45.1104 -5.12064
          CHANNELS 3 Zrotation Xrotation Yrotation
          End Site
          {
            OFFSET 1.1221 -3.69964 12.103
          }
        }
      }
    }
  }
}
MOTION
Frames:	4
Frame Time:	0.03333
0.0 0.0 0.0 0.0 0.0 0.0 0.0 0.0 0.0 0.0 0.0 0.0 0.0 0.0 0.0 0.0 0.0 0.0 0.0 0.0 0.0 0.0 0.0 0.0 0.0 0.0 0.0 0.0 0.0 0.0 0.0 0.0 0.0 0.0 0.0 0.0 0.0 0.0 0.0 0.0 0.0 0.0 0.0 0.0 0.0 0.0 0.0 0.0 0.0 0.0 0.0 0.0 0.0 0.0 0.0 0.0 0.0 0.0 0.0 0.0 0.0 0.0 0.0 0.0 0.0 0.0 0.0 0.0 0.0 0.0 0.0 0.0 0.0 0.0 0.0 0.0 0.0 0.0 0.0 0.0 0.0 0.0 0.0 0.0 0.0 0.0 0.0 0.0 0.0 0.0 0.0 0.0 0.0 0.0 0.0 0.0 0.0 0.0 0.0 0.0 0.0 0.0 0.0 0.0 0.0 0.0 0.0 0.0 0.0 0.0 0.0 0.0 0.0 0.0 0.0 0.0 0.0 0.0 0.0 0.0 0.0 0.0 0.0 0.0 0.0 0.0 0.0 0.0 0.0 0.0 0.0 0.0
-0.1093 66.1383 -0.2453 179.965122 11.077194 179.605655 -0.170135 -4.343337 180.0 0.087785 -16.122872 178.087074 10.034213 -8.472845 122.495766 -14.865165 52.758861 -154.768334 -171.223505 -1.269503 -16.430183 20.135597 1.025355 5.770378 -85.39654 -34.069066 149.131163 -109.640238 56.973303 117.688977 16.417681 -1.06272 -20.32956 -7.597706 1.732553 46.378222 10.6802 5.894032 73.025455 126.568209 15.511632 111.820904 -142.008817 -8.634798 161.822342 -149.271325 65.283922 165.714477 -30.531752 -3.454161 0.020198 -170.320564 -69.524968 -175.724996 174.31792 4.377566 -155.374597 116.44125 -62.592002 145.595828 -134.086123 -40.047442 -103.733927 177.285592 57.249672 -143.208449 -62.649707 17.889743 -26.571269 163.351732 76.89288 173.876356 174.597042 2.620953 129.47805 157.254546 -27.349588 103.511901 45.822957 70.17459 -179.669443 25.776898 -16.002452 -29.74147 37.37825 -22.461095 -137.520032 176.598173 15.781513 -125.727425 -153.663548 5.251521 126.486012 -157.000502 -38.75661 137.21612 71.888558 -13.870443 19.84944 -100.265 80.01542 53.712407 40.385876 -46.983656 0.638352 97.890248 -39.380214 87.730006 -54.005119 -18.071652 -77.301316 -3.027819 57.923423 2.534319 5.889214 -6.736666 36.513984 -82.90545 36.664585 100.592524 58.708707 -0.190489 89.622318 -0.171207 57.691291 179.234995 5.632937 -0.871053 86.818424 -81.981094 25.556862 90.459986
-1.3495 59.2881 0.14679999999999999 -24.48945 75.623282 -19.601182 -9.905802 15.49058 82.653376 -8.958653 -11.704679 -82.101455 -15.034816 33.908077 -83.063872 51.304334 14.42223 60.075262 3.869833 0.439964 12.967465 -22.714192 -1.87442 9.312426 -137.872248 37.097698 143.367322 45.746364 -53.380852 66.230423 -133.956168 -73.642679 -47.575739 -2.343297 10.035048 -3.306457 126.101101 -62.692672 69.275491 -38.633736 34.18815 23.637592 -15.837492 -13.971941 -17.447671 108.659639 -49.229289 15.96073 -3.741444 -6.882794 4.893311 -150.614197 0.367519 161.092162 -0.948206 -55.89985 -5.671764 -150.62513 -3.033712 168.307704 -7.793244 -0.728667 11.817134 -24.773836 13.555677 -176.354038 157.59923 -4.115414 -161.838553 115.962044 -75.036894 74.250585 104.151915 -82.789847 5.87545 3.126784 -25.812419 6.337164 3.673756 12.601005 10.767984 140.654799 -39.383818 -115.86768 6.077491 26.967934 -0.197841 1.008071 29.067218 -13.39451 -2.129547 0.652776 1.675243 166.193224 -82.96592 164.8676 125.497403 -5.914891 168.179106 -57.9123 34.508959 26.850769 -165.893688 8.10346 120.639293 -152.695776 5.94751 113.435575 3.834748 5.38282 -5.282244 -40.991722 -57.892342 134.266108 31.221342 -79.097943 -40.739351 -15.818064 6.170527 -105.49379 -130.453735 64.548296 -36.841732 -171.47675 28.270358 -79.286648 -82.771502 8.232504 -98.179557 96.761955 33.282572 153.259568
-1.9781 61.936 1.9469 -68.07177 78.449565 -62.38784 -4.409139 19.191206 -140.00691 3.175182 12.122246 143.63301 -5.682482 44.544473 -140.932149 43.136844 54.14363 82.658112 -9.986256 3.634507 -39.91707 -18.909305 5.155175 -30.254363 -148.415942 -1.270175 172.775454 -114.703387 -87.341252 -93.206541 -122.390409 -18.841453 -59.202616 7.468376 -25.943558 -13.054892 -2.031862 1.475634 15.04049 -122.615469 -20.132533 115.684614 -99.540927 -20.953518 -143.832827 13.251439 -51.343489 -123.570475 -156.069 -11.511746 112.653372 -170.959309 -27.073544 86.921586 -154.907747 -3.747726 168.338263 -154.932177 -30.627732 -170.10153 43.791735 -52.355328 32.965422 -56.272053 -73.426799 50.694647 -71.129292 -82.703762 -54.75384 -2.097621 -25.564453 60.642289 19.356005 -17.184343 145.421948 171.741739 -24.383001 -147.938593 168.29967 -11.205808 -87.034541 83.199029 -1.950355 -25.803525 142.349766 -36.884209 -137.372872 -90.619966 79.518965 122.830907 -167.008062 -45.04416 -130.579523 -134.831223 -30.996753 -143.592653 -6.311574 -0.143919 -1.915658 -20.484847 -66.638613 -12.774222 -11.391713 41.044659 -16.465068 20.88552 -35.907676 41.583122 176.714674 59.90565 3.795787 153.534603 -6.290215 -108.649885 -77.855407 -17.539773 92.748646 -118.477542 -20.688589 12.803909 31.21521 5.915784 -0.0 8.640906 -45.105225 -167.892466 72.782079 -65.3689 150.20385 118.015025 -50.322012 -173.320763
